<?xml version="1.0" standalone="no"?>
<!DOCTYPE svg PUBLIC "-//W3C//DTD SVG 20010904//EN"
 "http://www.w3.org/TR/2001/REC-SVG-20010904/DTD/svg10.dtd">
<svg version="1.0" xmlns="http://www.w3.org/2000/svg"
 width="600.000000pt" height="620.000000pt" viewBox="0 0 600.000000 620.000000"
 preserveAspectRatio="xMidYMid meet">

<g transform="translate(0.000000,620.000000) scale(0.100000,-0.100000)"
fill="#000000" stroke="none">
<path d="M2703 5070 c-293 -47 -567 -161 -817 -337 -104 -75 -344 -315 -419
-419 -240 -340 -357 -703 -357 -1114 0 -500 177 -945 519 -1302 372 -389 837
-588 1374 -588 408 0 773 118 1111 357 104 75 344 315 419 419 240 340 357
703 357 1114 0 411 -117 774 -357 1114 -75 104 -315 344 -419 419 -253 179
-526 291 -824 337 -164 26 -427 26 -587 0z m453 -250 c608 -58 1127 -449 1359
-1026 78 -192 127 -495 110 -679 -4 -44 -9 -102 -11 -130 -6 -75 -60 -283 -99
-379 -127 -316 -332 -570 -609 -757 -545 -368 -1267 -368 -1812 0 -415 280
-669 714 -715 1222 -32 356 66 732 270 1035 335 498 911 770 1507 714z"/>
<path d="M2453 4140 c-66 -40 -63 10 -63 -940 0 -950 -3 -900 63 -940 68 -42
83 -36 398 148 112 65 312 181 444 257 132 76 278 160 325 188 47 27 157 90
245 139 88 50 168 98 179 107 27 24 46 66 46 104 0 62 -34 93 -200 189 -85 48
-189 108 -230 132 -41 24 -203 118 -360 208 -157 91 -370 214 -475 275 -293
170 -305 174 -372 133z"/>
<path d="M2332 100 c0 -40 2 -47 7 -26 9 42 29 44 34 4 l5 -33 -2 35 c-1 24
-6 35 -16 35 -8 0 -18 9 -22 20 -3 11 -6 -4 -6 -35z"/>
<path d="M2933 100 c0 -30 1 -47 4 -37 5 18 5 18 25 0 21 -18 21 -18 9 5 -10
19 -10 27 1 40 10 13 8 13 -9 -1 -21 -19 -22 -19 -26 15 -2 20 -4 11 -4 -22z"/>
<path d="M3367 143 c-4 -3 -7 -11 -7 -17 0 -6 5 -5 12 2 16 16 28 15 28 -3 0
-8 -5 -15 -12 -15 -6 0 -4 -6 7 -13 10 -8 15 -19 11 -25 -10 -16 -33 -15 -39
1 -4 9 -6 9 -6 -1 -1 -20 29 -26 46 -9 13 13 14 19 4 31 -8 10 -9 16 -1 21 8
5 8 11 -1 21 -12 15 -31 18 -42 7z"/>
<path d="M3447 143 c-4 -3 -7 -11 -7 -17 0 -6 5 -5 12 2 17 17 28 15 28 -6 0
-11 -9 -27 -20 -37 -28 -26 -25 -35 13 -34 23 1 26 3 10 6 l-23 4 22 29 c17
24 19 32 8 45 -13 16 -32 20 -43 8z"/>
<path d="M3527 143 c-13 -12 -7 -42 10 -52 15 -8 15 -11 3 -27 -10 -11 -10
-15 -2 -10 6 4 19 21 28 37 12 24 13 34 3 45 -12 15 -31 18 -42 7z m38 -23 c0
-8 -8 -16 -17 -18 -13 -2 -18 3 -18 18 0 15 5 20 18 18 9 -2 17 -10 17 -18z"/>
<path d="M3607 143 c-4 -3 -7 -11 -7 -17 0 -6 5 -5 12 2 17 17 28 15 28 -6 0
-11 -9 -27 -20 -37 -28 -26 -25 -35 13 -34 29 1 30 2 7 8 -18 5 -21 9 -12 15
20 12 31 49 20 64 -11 13 -31 16 -41 5z"/>
<path d="M3690 133 c0 -11 3 -14 8 -7 4 6 14 14 22 17 10 4 8 6 -7 6 -16 1
-23 -5 -23 -16z"/>
<path d="M3760 125 c-11 -29 3 -75 23 -75 21 0 37 22 37 50 0 50 -44 68 -60
25z m45 -26 c0 -24 -5 -34 -15 -34 -16 0 -25 37 -16 62 10 26 31 8 31 -28z"/>
<path d="M3847 143 c-4 -3 -7 -11 -7 -17 0 -6 5 -5 12 2 16 16 28 15 28 -3 0
-8 -5 -15 -12 -15 -6 0 -4 -6 7 -13 10 -8 15 -19 11 -25 -10 -16 -33 -15 -39
1 -4 9 -6 9 -6 -1 -1 -18 27 -26 43 -13 14 12 15 58 2 79 -8 13 -29 16 -39 5z"/>
<path d="M3927 143 c-4 -3 -7 -11 -7 -17 0 -6 5 -5 12 2 17 17 28 15 28 -6 0
-11 -9 -27 -20 -37 -28 -26 -25 -35 13 -34 23 1 26 3 10 6 l-23 4 22 29 c17
24 19 32 8 45 -13 16 -32 20 -43 8z"/>
<path d="M4007 143 c-13 -12 -7 -42 10 -52 15 -8 15 -11 3 -27 -10 -11 -10
-15 -2 -10 6 4 19 21 28 37 12 24 13 34 3 45 -12 15 -31 18 -42 7z m38 -23 c0
-8 -8 -16 -17 -18 -13 -2 -18 3 -18 18 0 15 5 20 18 18 9 -2 17 -10 17 -18z"/>
<path d="M1943 85 c10 -35 27 -48 27 -20 0 8 -4 15 -10 15 -5 0 -10 9 -10 20
0 11 -4 20 -9 20 -5 0 -4 -15 2 -35z"/>
<path d="M1976 111 c-5 -7 -4 -16 1 -20 5 -3 13 -15 17 -26 8 -18 10 -16 24
15 l15 35 10 -32 c10 -34 27 -45 27 -18 0 8 -4 15 -10 15 -5 0 -10 9 -10 21 0
29 -33 21 -40 -11 l-6 -25 -10 30 c-7 21 -13 25 -18 16z"/>
<path d="M2076 111 c-5 -7 -4 -16 1 -20 5 -3 13 -15 17 -26 8 -18 10 -16 24
15 l15 35 10 -32 c10 -34 27 -45 27 -18 0 8 -4 15 -10 15 -5 0 -10 9 -10 21 0
29 -33 21 -40 -11 l-6 -25 -10 30 c-7 21 -13 25 -18 16z"/>
<path d="M2175 110 c-4 -7 -3 -15 2 -19 5 -3 13 -15 17 -26 6 -17 9 -17 15 -5
17 30 24 63 12 56 -6 -4 -11 -17 -12 -29 -1 -19 -2 -19 -13 7 -9 20 -16 25
-21 16z"/>
<path d="M2274 108 c-4 -6 0 -16 9 -23 22 -16 21 -22 0 -28 -16 -4 -16 -5 -1
-6 26 -2 33 20 12 36 -16 12 -17 15 -4 23 9 6 10 10 3 10 -6 0 -15 -5 -19 -12z"/>
<path d="M2404 91 c0 -21 7 -36 16 -38 10 -3 11 -2 3 4 -6 4 -13 22 -16 38 -4
27 -5 27 -3 -4z"/>
<path d="M2443 85 c0 -22 2 -30 4 -17 2 12 2 30 0 40 -3 9 -5 -1 -4 -23z"/>
<path d="M2469 88 c4 -17 13 -34 21 -36 13 -4 13 -3 2 10 -14 17 -13 39 3 50
6 4 0 8 -11 8 -19 0 -21 -4 -15 -32z"/>
<path d="M2519 88 c4 -17 13 -34 20 -36 10 -3 11 0 5 9 -13 22 -14 43 -1 51 8
5 4 8 -9 8 -19 0 -21 -4 -15 -32z"/>
<path d="M2574 106 c-11 -28 0 -51 26 -53 22 -1 22 -1 3 4 -29 6 -30 23 -2 23
14 0 19 5 17 17 -4 23 -36 29 -44 9z m36 -6 c0 -5 -7 -10 -15 -10 -8 0 -15 5
-15 10 0 6 7 10 15 10 8 0 15 -4 15 -10z"/>
<path d="M2641 81 c1 -28 3 -30 6 -11 3 14 9 30 14 36 5 7 3 11 -6 11 -11 0
-15 -11 -14 -36z"/>
<path d="M2694 108 c-4 -6 0 -16 9 -23 22 -16 21 -22 0 -28 -16 -4 -16 -5 -1
-6 26 -2 33 20 12 36 -16 12 -17 15 -4 23 9 6 10 10 3 10 -6 0 -15 -5 -19 -12z"/>
<path d="M2749 88 c4 -17 13 -34 20 -36 10 -3 11 0 5 9 -13 22 -14 43 -1 51 8
5 4 8 -9 8 -19 0 -21 -4 -15 -32z"/>
<path d="M2807 114 c-13 -13 -7 -55 9 -61 24 -9 51 23 38 45 -12 19 -36 27
-47 16z m38 -29 c0 -11 -8 -21 -17 -23 -14 -3 -18 3 -18 23 0 20 4 26 18 23 9
-2 17 -12 17 -23z"/>
<path d="M2874 106 c-9 -23 0 -51 16 -52 9 0 10 1 3 3 -20 7 -16 51 5 56 16 4
16 5 -1 6 -10 0 -20 -5 -23 -13z"/>
<path d="M3034 106 c-9 -23 0 -51 16 -52 9 0 10 1 3 3 -20 7 -16 51 5 56 16 4
16 5 -1 6 -10 0 -20 -5 -23 -13z"/>
<path d="M3097 114 c-13 -13 -7 -55 9 -61 24 -9 51 23 38 45 -12 19 -36 27
-47 16z m38 -29 c0 -11 -8 -21 -17 -23 -14 -3 -18 3 -18 23 0 20 4 26 18 23 9
-2 17 -12 17 -23z"/>
<path d="M3163 85 c0 -22 2 -30 4 -17 2 12 2 30 0 40 -3 9 -5 -1 -4 -23z"/>
<path d="M3187 112 c6 -4 13 -21 16 -37 l4 -30 2 33 c1 41 23 39 33 -4 6 -27
6 -27 5 6 -2 32 -4 35 -36 37 -19 1 -30 -2 -24 -5z"/>
<path d="M3698 103 c26 -5 30 -39 5 -46 -15 -4 -15 -5 -2 -6 9 0 22 6 29 14
16 20 -4 46 -34 44 -20 -2 -20 -2 2 -6z"/>
</g>
</svg>
